# xmcd CD database file
#
# Track frame offsets:
#	150
#	11480
#	25181
#	39263
#	54763
#	68572
#	82828
#	92213
#	104429
#	120091
#	135287
#	149825
#	162420
#	173190
#	186440
#	198523
#	212997
#	230006
#	243961
#	255568
#
# Disc length: 3580 seconds
#
# Revision: 0
# Processed by: cddbd v1.5.2PL0 Copyright (c) Steve Scherf et al.
# Submitted via: CDex 1.70beta2
#
DISCID=0a0dfa14
DTITLE=Various Artist - Cafe Jazz 2 - CD 4
DYEAR=2010
DGENRE=Jazz
TTITLE0=Duke Ellington Trio - In A Sentimental Mood
TTITLE1=Oscar Peterson Trio - I Don't Stand A Ghost Of A Chance With You
TTITLE2=Peggy Lee - Black Coffee
TTITLE3=Miles Davis - When Lights Are Low
TTITLE4=Charlie Parker - The Gypsy
TTITLE5=Frank Sinatra - Day by Day
TTITLE6=Chet baker - I Fall In Love Too Easily
TTITLE7=Stan Getz - Stan's Mood
TTITLE8=Lena Horne - Out Of Nowhere
TTITLE9=Johnny Hodges - After All
TTITLE10=Coleman Hawkins and His Orchestra - Angel Face
TTITLE11=Nat Kning Cole - If Love Is Good To Me
TTITLE12=Bud Powell - Ornithjology
TTITLE13=Thelonious Monk - Straight No Chaser
TTITLE14=Mel Torme - My Baby Just Cares For Me
TTITLE15=Gerry Mulligan Quartet - Lullaby Of The Leaves
TTITLE16=Ben Webster - Memories Of You
TTITLE17=Dinah Washington - I Thought About You
TTITLE18=Django Reinhardt - September Song
TTITLE19=Sarah Vaughan - Mean To Me
EXTD=YEAR: 2010
EXTT0=
EXTT1=
EXTT2=
EXTT3=
EXTT4=
EXTT5=
EXTT6=
EXTT7=
EXTT8=
EXTT9=
EXTT10=
EXTT11=
EXTT12=
EXTT13=
EXTT14=
EXTT15=
EXTT16=
EXTT17=
EXTT18=
EXTT19=
PLAYORDER=
